# xmcd CD database file
# Copyright (C) 1993-1998 Ti Kan
#
# Track frame offsets:
# 150
# 19682
# 39000
# 56475
# 66825
# 79865
# 95812
# 112875
# 125600
# 138100
# 156350
# 173250
#
# Disc length: 2455 seconds
# Revision: 0
# Processed by: cddbd v1.4b41PL1 Copyright (c) Steve Scherf et al.
# Submitted via: CDSpectrumPro v3.2.328
#
DISCID=8f09950c
DTITLE=Kate Ceberano and Wendy Matthews - You've Always Got The Blues
DYEAR=1900
DGENRE=
TTITLE0=You've Always Got The Blues
TTITLE1=Guilty (Through Neglect)
TTITLE2=Back From The Dead
TTITLE3=The Danger Zone
TTITLE4=Stringer
TTITLE5=Sing To Me
TTITLE6=The Girl In The Picture
TTITLE7=3 =2 and 1 (Shame)
TTITLE8=Cry Me A River
TTITLE9=Don't You take It Too Bad
TTITLE10=Young Love
TTITLE11=The Way You Look Tonight
EXTD=
EXTT0=
EXTT1=
EXTT2=
EXTT3=
EXTT4=
EXTT5=
EXTT6=
EXTT7=
EXTT8=
EXTT9=
EXTT10=
EXTT11=
PLAYORDER=
